<?xml version="1.0" standalone="no"?>
<!DOCTYPE svg PUBLIC "-//W3C//DTD SVG 20010904//EN"
 "http://www.w3.org/TR/2001/REC-SVG-20010904/DTD/svg10.dtd">
<svg version="1.0" xmlns="http://www.w3.org/2000/svg"
 width="600.000000pt" height="600.000000pt" viewBox="0 0 600.000000 600.000000"
 preserveAspectRatio="xMidYMid meet">

<g transform="translate(0.000000,600.000000) scale(0.100000,-0.100000)"
fill="#000000" stroke="none">
<path d="M2910 5648 c-18 -13 -43 -36 -54 -51 -21 -28 -21 -30 -26 -1225 l-5
-1197 -1197 -5 c-1195 -5 -1197 -5 -1225 -26 -51 -38 -73 -81 -73 -144 0 -89
54 -154 141 -171 24 -4 565 -8 1202 -9 l1157 0 0 -1189 0 -1188 23 -34 c37
-55 81 -79 147 -79 89 0 154 54 171 141 4 24 8 563 9 1197 l0 1152 1153 0
c633 1 1172 5 1196 9 87 17 141 82 141 171 0 66 -24 110 -79 147 l-34 23
-1188 0 -1189 0 0 1158 c-1 636 -5 1177 -9 1201 -17 87 -82 141 -171 141 -43
0 -65 -6 -90 -22z"/>
</g>
</svg>
